<?xml version="1.0" encoding="UTF-8"?>
<svg width="300px" height="300px" viewBox="0 0 300 300" version="1.1" xmlns="http://www.w3.org/2000/svg" xmlns:xlink="http://www.w3.org/1999/xlink">
    <!-- Generator: Sketch 51 (57462) - http://www.bohemiancoding.com/sketch -->
    <title>RivalLogoCircle</title>
    <desc>Created with Sketch.</desc>
    <defs></defs>
    <g id="RivalLogoCircle" stroke="none" stroke-width="1" fill="none" fill-rule="evenodd">
        <circle id="Oval" stroke="#000000" stroke-width="3" cx="150.5" cy="150.5" r="147.5"></circle>
        <path d="M235.859375,222 L217.578125,222 L217.578125,194.578125 C217.578125,190.134743 217.49878,186.310319 217.340088,183.104736 C217.181396,179.899154 216.64185,177.15382 215.721436,174.868652 C214.801021,172.583485 213.356943,170.742683 211.38916,169.346191 C209.421377,167.9497 206.628436,166.870609 203.010254,166.108887 C199.392072,165.347164 194.805936,164.823488 189.251709,164.537842 C183.697482,164.252196 176.857951,164.109375 168.73291,164.109375 L86.5625,164.109375 L86.5625,222 L68.28125,222 L68.28125,75.75 L171.779785,75.75 C182.951716,75.75 192.362022,76.1467245 200.010986,76.9401855 C207.65995,77.7336465 213.975805,78.9238202 218.95874,80.5107422 C223.941675,82.0976642 227.781969,84.0654179 230.479736,86.4140625 C233.177504,88.7627071 235.145257,91.5239099 236.383057,94.6977539 C237.620856,97.8715979 238.350829,101.42625 238.572998,105.361816 C238.795167,109.297383 238.90625,113.645484 238.90625,118.40625 C238.90625,124.50003 238.477787,129.847877 237.62085,134.449951 C236.763912,139.052025 235.319834,142.971664 233.288574,146.208984 C231.257314,149.446305 228.559587,152.032949 225.195312,153.968994 C221.831038,155.905039 217.609889,157.253902 212.531738,158.015625 C217.609889,158.777348 221.672348,160.110342 224.719238,162.014648 C227.766129,163.918955 230.114738,166.394516 231.765137,169.441406 C233.415536,172.488296 234.510495,176.106424 235.050049,180.295898 C235.589602,184.485373 235.859375,189.246067 235.859375,194.578125 L235.859375,222 Z M86.5625,148.875 L171.779785,148.875 C179.904826,148.875 186.744357,148.732179 192.298584,148.446533 C197.852811,148.160887 202.438947,147.637211 206.057129,146.875488 C209.675311,146.113766 212.468252,145.034675 214.436035,143.638184 C216.403818,142.241692 217.847896,140.40089 218.768311,138.115723 C219.688725,135.830555 220.228271,133.085221 220.386963,129.879639 C220.545655,126.674056 220.625,122.849632 220.625,118.40625 C220.625,114.280253 220.545655,110.725601 220.386963,107.742188 C220.228271,104.758774 219.688725,102.251475 218.768311,100.220215 C217.847896,98.1889547 216.403818,96.5703185 214.436035,95.3642578 C212.468252,94.1581971 209.675311,93.2219272 206.057129,92.5554199 C202.438947,91.8889127 197.852811,91.4604502 192.298584,91.2700195 C186.744357,91.0795889 179.904826,90.984375 171.779785,90.984375 L86.5625,90.984375 L86.5625,148.875 Z" id="R" fill="#000000"></path>
    </g>
</svg>
